<?xml version="1.0" standalone="no"?>
<!DOCTYPE svg PUBLIC "-//W3C//DTD SVG 1.1//EN" "http://www.w3.org/Graphics/SVG/1.1/DTD/svg11.dtd" >
<svg xmlns="http://www.w3.org/2000/svg">
<metadata></metadata>
<defs>
<font id="topic_alternatesregular" horiz-adv-x="684" >
<font-face units-per-em="2048" ascent="1638" descent="-410" />
<missing-glyph horiz-adv-x="593" />
<glyph horiz-adv-x="2048" />
<glyph horiz-adv-x="2048" />
<glyph unicode="&#xd;" horiz-adv-x="681" />
<glyph unicode=" "  horiz-adv-x="593" />
<glyph unicode="&#x09;" horiz-adv-x="593" />
<glyph unicode="&#xa0;" horiz-adv-x="593" />
<glyph unicode="!" horiz-adv-x="333" d="M55 98q0 47 33 80t80 33t80 -33t33 -80q0 -45 -33 -76.5t-80 -31.5t-80 30.5t-33 77.5zM88 369v1054h160v-1054h-160z" />
<glyph unicode="&#x22;" horiz-adv-x="454" d="M16 1423h162l-12 -376h-137zM276 1423h162l-12 -376h-137z" />
<glyph unicode="#" horiz-adv-x="722" d="M16 414l13 123h110l41 350h-106l12 123h111l49 413h135l-49 -413h129l51 413h135l-49 -413h109l-15 -123h-110l-41 -350h108l-14 -123h-109l-49 -414h-137l51 414h-131l-49 -414h-135l49 414h-109zM276 537h130l40 350h-129z" />
<glyph unicode="$" horiz-adv-x="630" d="M55 31v190h8q74 -80 195 -80q145 0 145 148v272q0 70 -43 84q-16 6 -112 6q-188 0 -189 191v338q0 227 211 252v122h127v-122q102 -10 152 -35v-193h-8q-72 84 -179 84q-135 0 -135 -133v-246q0 -68 43 -84q14 -6 113 -6q188 0 188 -188v-383q0 -213 -190 -250v-123h-127 v117q-137 10 -199 39z" />
<glyph unicode="%" horiz-adv-x="1024" d="M16 688v594q0 88 47 123q39 31 132 31q94 0 133 -29q45 -33 45 -125v-594q0 -86 -47 -121q-39 -31 -131.5 -30.5t-133.5 28.5q-45 33 -45 123zM143 705q0 -51 51.5 -51t51.5 51v563q0 51 -51.5 51t-51.5 -51v-563zM190 0l512 1423h129l-512 -1423h-129zM651 139v594 q0 88 47 123q39 31 131 31q94 0 134 -29q45 -33 45 -125v-594q0 -86 -47 -121q-41 -29 -132 -28q-94 0 -133 26q-45 33 -45 123zM778 156q0 -51 51.5 -51t51.5 51v563q0 51 -51.5 51t-51.5 -51v-563z" />
<glyph unicode="&#x26;" horiz-adv-x="686" d="M68 236v309q0 190 172 190v8q-172 0 -172 191v264q0 238 280 238q119 0 217 -39v-193h-8q-72 74 -174 74q-154 0 -154 -119v-229q0 -115 95 -115h346v-151h-62v-428q0 -133 -56 -189.5t-190 -56.5h-47q-133 0 -190 56t-57 190zM229 242q0 -63 23.5 -86t85 -23t85 23 t23.5 86v422h-137q-80 0 -80 -101v-321z" />
<glyph unicode="'" horiz-adv-x="194" d="M16 1423h162l-12 -376h-137z" />
<glyph unicode="(" horiz-adv-x="309" d="M68 162v833q0 229 118 428h105q-70 -172 -70 -327v-1037q0 -151 70 -323h-105q-119 199 -118 426z" />
<glyph unicode=")" horiz-adv-x="309" d="M18 -264q68 172 68 325v1037q0 154 -68 325h105q119 -199 119 -428v-833q0 -227 -119 -426h-105z" />
<glyph unicode="*" horiz-adv-x="598" d="M16 1157l45 146l185 -89l-25 209h156l-25 -209l183 89l47 -146l-199 -39l149 -151l-126 -99l-107 191l-106 -191l-130 99l152 151z" />
<glyph unicode="+" horiz-adv-x="624" d="M47 502v151h189v221h153v-221h191v-151h-191v-221h-153v221h-189z" />
<glyph unicode="," horiz-adv-x="272" d="M-23 -162l93 375h182l-143 -375h-132z" />
<glyph unicode="-" horiz-adv-x="530" d="M47 502v151h438v-151h-438z" />
<glyph unicode="." horiz-adv-x="272" d="M23 98q0 47 32.5 80t79.5 33t80 -33t33 -80t-33 -77.5t-80 -30.5t-79.5 31.5t-32.5 76.5z" />
<glyph unicode="/" horiz-adv-x="602" d="M-14 -121l475 1667h157l-477 -1667h-155z" />
<glyph unicode="0" horiz-adv-x="663" d="M61 215v993q0 227 270.5 227.5t270.5 -227.5v-993q0 -225 -270.5 -225t-270.5 225zM225 238q0 -59 22.5 -80t84.5 -21q59 0 82.5 22t23.5 79v948q0 57 -23.5 78.5t-82.5 21.5q-61 0 -84 -20.5t-23 -79.5v-948z" />
<glyph unicode="1" horiz-adv-x="397" d="M16 1100v184q96 47 162 139h141v-1423h-161v1184h-8q-16 -12 -32 -24.5t-23 -17.5t-9 -5q-31 -23 -70 -37z" />
<glyph unicode="2" horiz-adv-x="604" d="M23 0v8l215 590q152 430 151 535q0 154 -156 153q-111 0 -190 -74h-8v168q100 55 233 56q289 -1 289 -275q0 -125 -119 -473q-145 -420 -186 -536h293v-152h-522z" />
<glyph unicode="3" horiz-adv-x="567" d="M23 29v178h8q63 -76 172 -76q137 0 137 133v295q0 104 -80 105h-84v147h84q80 0 80 104v248q0 129 -133 129q-100 0 -164 -75h-8v178q92 41 207 41q260 0 260 -238v-321q0 -123 -96 -136v-10q96 -12 96 -133v-367q0 -242 -266 -241q-121 0 -213 39z" />
<glyph unicode="4" horiz-adv-x="649" d="M16 256v139l367 1028h156v-1028h94v-139h-94v-256h-160v256h-363zM164 395h229v619h-8z" />
<glyph unicode="5" horiz-adv-x="585" d="M47 762v661h457v-151h-303v-359h139q199 0 199 -196v-479q0 -248 -279 -248q-109 0 -211 39v178h8q68 -76 176 -76q150 0 150 135v393q0 59 -23.5 81t-87.5 22h-225z" />
<glyph unicode="6" horiz-adv-x="602" d="M61 193v1024q0 219 263 219q119 0 213 -37v-170h-9q-70 57 -176 57q-74 0 -100 -20q-35 -25 -35 -99v-303h8q47 53 150 54q178 0 178 -158v-567q0 -203 -244 -203q-248 0 -248 203zM217 223q0 -88 92 -88q90 0 90 88v465q0 109 -90 109q-92 0 -92 -109v-465z" />
<glyph unicode="7" horiz-adv-x="649" d="M23 1272v151h608v-8l-424 -1415h-160l377 1272h-401z" />
<glyph unicode="8" horiz-adv-x="634" d="M61 190v359q0 143 146 192v9q-145 43 -146 192v291q0 203 256 203t256 -203v-291q0 -152 -145 -192v-11q145 -47 145 -190v-359q0 -201 -256 -200.5t-256 200.5zM219 213q0 -78 98 -78q97 0 97 78v322q0 74 -97 127q-98 -51 -98 -127v-322zM219 936q0 -68 98 -125 q97 55 97 125v274q0 78 -97 78q-98 0 -98 -78v-274z" />
<glyph unicode="9" horiz-adv-x="602" d="M49 666v565q0 205 246 205t246 -205v-1024q0 -217 -262 -217q-115 0 -213 35v170h8q70 -57 178 -58q76 0 105.5 24.5t29.5 94.5v303h-8q-47 -53 -150 -53q-180 0 -180 160zM205 735q0 -109 90 -108q92 -1 92 108v465q0 88 -92 88q-90 0 -90 -88v-465z" />
<glyph unicode=":" horiz-adv-x="272" d="M23 98q0 47 32.5 80t79.5 33t80 -33t33 -80t-33 -77.5t-80 -30.5t-79.5 31.5t-32.5 76.5zM23 729q0 47 33.5 80t78.5 33q47 0 80 -33t33 -80t-33 -80t-80 -33t-79.5 33t-32.5 80z" />
<glyph unicode=";" horiz-adv-x="272" d="M-23 -162l93 375h182l-143 -375h-132zM23 729q0 47 33.5 80t78.5 33q47 0 80 -33t33 -80t-33 -80t-80 -33t-79.5 33t-32.5 80z" />
<glyph unicode="&#x3c;" horiz-adv-x="1073" d="M61 213v522q0 225 226 226q102 0 180 -41v-172h-8q-45 70 -144 69q-102 0 -102 -90v-506q0 -90 102 -90q98 0 144 70h8v-172q-76 -39 -180 -39q-225 0 -226 223zM506 0v1423h153v-567h9q55 104 166 105q174 0 174 -230v-731h-156v709q0 113 -96 112q-94 0 -94 -112v-709 h-156z" />
<glyph unicode="=" horiz-adv-x="569" d="M47 342v156h477v-156h-477zM47 659v156h477v-156h-477z" />
<glyph unicode="&#x3e;" horiz-adv-x="1044" d="M61 213v522q0 225 226 226q102 0 180 -41v-172h-8q-45 70 -144 69q-102 0 -102 -90v-506q0 -90 102 -90q98 0 144 70h8v-172q-76 -39 -180 -39q-225 0 -226 223zM508 0v1423h154v-876h4q10 37 32 96l121 305h160l-184 -436l241 -512h-170l-159 350q-16 33 -41 103h-4 v-453h-154z" />
<glyph unicode="?" horiz-adv-x="446" d="M23 1214v168q78 53 190 54q205 -1 205 -226q0 -94 -96.5 -348t-96.5 -307q0 -49 51 -49q53 0 78 39h8v-162q-63 -25 -114 -25q-84 0 -130 50.5t-46 138.5q0 74 96 327.5t96 311.5q0 96 -92 96q-86 0 -141 -68h-8zM125 98q0 47 32.5 80t80 33t80 -33t32.5 -80 q0 -45 -32.5 -76.5t-80 -31.5t-80 31.5t-32.5 76.5z" />
<glyph unicode="@" horiz-adv-x="737" d="M68 219v985q0 231 260 232h82q260 0 260 -232v-928q0 -123 -127 -122.5t-127 122.5v121h-8q-20 -51 -91 -51q-51 0 -67 31q-14 20 -14 78v221q0 57 14 78q16 31 67 30q68 0 91 -49h8v187q0 70 -66 69q-61 0 -100 -45h-8v96q53 29 133 29q125 0 125 -129v-668 q0 -45 45 -45t45 45v910q0 106 -60 147q-51 37 -161.5 37t-161.5 -37q-59 -41 -60 -147v-946q0 -104 60 -148q51 -35 160 -35q80 0 122 15v-72q-47 -8 -81 -8h-80q-260 0 -260 229zM315 479q0 -59 47 -59q54 0 54 59v172q0 59 -54 60q-47 0 -47 -60v-172z" />
<glyph unicode="A" horiz-adv-x="706" d="M78 0v1180q0 139 66.5 197.5t209.5 58.5q141 0 205 -56q70 -61 70 -200v-1180h-164v690h-223v-690h-164zM242 842h223v340q0 108 -109 108h-2q-113 0 -112 -108v-340z" />
<glyph unicode="B" d="M86 0v1423h270q250 0 250 -249v-236q0 -178 -151 -188v-9q176 -6 176 -200v-291q0 -250 -250 -250h-295zM250 152h123q94 0 94 102v313q0 100 -94 101h-123v-516zM250 811h102q94 0 94 100v258q0 102 -94 103h-102v-461z" />
<glyph unicode="C" horiz-adv-x="581" d="M68 240v944q0 252 286 252q104 0 191 -39v-193h-8q-49 74 -150 74q-156 0 -156 -125v-883q0 -125 156 -125q100 0 150 74h8v-192q-90 -37 -191 -37q-287 0 -286 250z" />
<glyph unicode="D" horiz-adv-x="714" d="M86 0v1423h309q252 0 252 -249v-924q0 -250 -252 -250h-309zM250 152h137q96 0 96 102v915q0 102 -96 103h-137v-1120z" />
<glyph unicode="E" horiz-adv-x="544" d="M66 240v327q0 190 172 191v8q-172 0 -172 190v228q0 239 237 239h2h189v-151h-168q-96 0 -97 -105v-231q0 -98 97 -98h161v-152h-161q-96 0 -97 -98v-332q0 -104 97 -104h176v-152h-197q-240 0 -239 240z" />
<glyph unicode="F" horiz-adv-x="536" d="M86 0v1423h408v-151h-244v-434h233v-152h-233v-686h-164z" />
<glyph unicode="G" horiz-adv-x="686" d="M68 238v938q0 147 88 208q72 51 229 52q113 0 207 -41v-193h-8q-76 82 -193 82q-160 0 -160 -125v-917q0 -109 119 -109q68 0 93.5 23.5t25.5 85.5v444h-133v152h297v-600q0 -131 -56.5 -188.5t-187.5 -57.5h-65q-256 0 -256 246z" />
<glyph unicode="H" horiz-adv-x="753" d="M86 0v1423h164v-579h254v579h164v-1423h-164v692h-254v-692h-164z" />
<glyph unicode="I" horiz-adv-x="358" d="M96 0v1423h164v-1423h-164z" />
<glyph unicode="J" horiz-adv-x="421" d="M23 12v166h8q33 -37 96 -37q57 0 57 58v1224h162v-1239q0 -194 -192 -194h-2q-72 0 -129 22z" />
<glyph unicode="K" horiz-adv-x="702" d="M86 0v1423h164v-598h22l238 598h170l-244 -598h21q152 0 151 -159v-476q0 -119 49 -182v-8h-174q-37 55 -37 184v410q0 45 -16 62.5t-63 17.5h-117v-674h-164z" />
<glyph unicode="L" horiz-adv-x="489" d="M86 0v1423h164v-1271h225v-152h-389z" />
<glyph unicode="M" horiz-adv-x="1087" d="M78 0v1186q0 137 67 196q63 53 199 54q152 0 197 -101h8q45 100 194 101q139 0 204 -58.5t65 -191.5v-1186h-162v1184q0 108 -109 108h-2q-113 0 -112 -108v-1184h-162v1184q0 109 -111 109l-2 -1q-112 0 -112 -108v-1184h-162z" />
<glyph unicode="N" horiz-adv-x="714" d="M86 0v1423h164v-85h8q41 96 156 98q223 0 223 -232v-1204h-162v1182q0 109 -111 109l-2 -1q-112 0 -112 -108v-1182h-164z" />
<glyph unicode="O" horiz-adv-x="724" d="M68 238v948q0 250 249 250h91q250 0 249 -250v-948q0 -248 -249 -248h-91q-250 0 -249 248zM231 246q0 -109 131.5 -109t131.5 109v932q0 109 -130 109l-2 -1q-132 0 -131 -108v-932z" />
<glyph unicode="P" horiz-adv-x="671" d="M86 0v1423h299q250 0 250 -249v-250q0 -250 -250 -250h-135v-674h-164zM250 825h127q94 1 94 103v241q0 102 -94 103h-127v-447z" />
<glyph unicode="Q" horiz-adv-x="724" d="M68 238v948q0 250 249 250h91q250 0 249 -250v-948q0 -74 -22 -132l80 -73l-97 -105l-86 78q-55 -16 -124 -16h-91q-250 0 -249 248zM231 246q0 -109 131 -109h29l-41 39l94 107l50 -45v940q0 109 -130 109q-1 0 -2 -1q-131 0 -131 -108v-932z" />
<glyph unicode="R" horiz-adv-x="690" d="M86 0v1423h305q231 0 232 -249v-207q0 -186 -156 -217v-9q72 -14 100 -135q23 -98 31 -241q0 -10 2 -62.5t3 -70t6 -59.5t11.5 -63.5t18.5 -50t29 -51.5v-8h-172q-41 63 -52 236q-2 104 -26 350q-23 108 -105 108h-2h-61v-694h-164zM250 846h112q97 0 97 102v221 q0 102 -97 103h-112v-426z" />
<glyph unicode="S" horiz-adv-x="630" d="M55 31v190h8q74 -80 195 -80q145 0 145 148v276q0 70 -43 84q-16 6 -112 6q-188 0 -189 191v334q0 256 275 256q139 0 215 -39v-193h-8q-72 84 -179 84q-135 0 -135 -133v-250q0 -70 43 -84q14 -6 113 -6q188 0 188 -188v-379q0 -258 -280 -258q-147 0 -236 41z" />
<glyph unicode="T" horiz-adv-x="577" d="M16 1272v151h545v-151h-190v-1272h-164v1272h-191z" />
<glyph unicode="U" horiz-adv-x="745" d="M78 238v1185h164v-1177q0 -70 37 -90q29 -18 94 -18q2 0 3 -1q62 0 91 19q37 20 37 90v1177h164v-1185q0 -248 -250 -248h-90q-250 0 -250 248z" />
<glyph unicode="V" horiz-adv-x="692" d="M23 1423h163l129 -817q6 -41 33 -303h4q4 59 33 303l127 817h158l-242 -1423h-164z" />
<glyph unicode="W" horiz-adv-x="1087" d="M78 238v1185h162v-1183q0 -109 112.5 -109t112.5 109v1183h162v-1183q0 -109 112 -109q111 0 111 109v1183h162v-1185q0 -133 -64.5 -190.5t-204.5 -57.5q-150 0 -194 98h-8q-45 -98 -197 -98q-135 0 -199 53q-68 59 -67 195z" />
<glyph unicode="X" horiz-adv-x="688" d="M86 0v557q0 188 158 188v9q-158 0 -158 190v479h164v-505q0 -96 94 -96l1 -1q93 0 93 97v505h164v-479q0 -190 -158 -190v-9q158 0 158 -188v-557h-164v582q0 96 -94 96t-94 -96v-582h-164z" />
<glyph unicode="Y" horiz-adv-x="675" d="M61 803v620h164v-624q0 -109 113 -109t113 109v624h163v-620q0 -221 -194 -250v-553h-164v553q-195 29 -195 250z" />
<glyph unicode="Z" horiz-adv-x="647" d="M16 0v8l353 1110q39 119 53 154h-365v151h574v-8l-350 -1100q-29 -94 -58 -163h367v-152h-574z" />
<glyph unicode="[" horiz-adv-x="405" d="M86 -264v1687h289v-131h-127v-1425h135v-131h-297z" />
<glyph unicode="\" horiz-adv-x="354" d="M27 801v147h51v254q0 115 47 168q59 66 194 66q106 0 166 -41v-168h-8q-43 66 -131 65q-115 0 -115 -98v-1194h-153v801h-51z" />
<glyph unicode="]" horiz-adv-x="405" d="M23 -133h137v1425h-127v131h289v-1687h-299v131z" />
<glyph unicode="^" d="M23 680l247 743h144l245 -743h-151l-168 496l-168 -496h-149z" />
<glyph unicode="_" horiz-adv-x="487" d="M0 -133h487v-131h-487v131z" />
<glyph unicode="`" horiz-adv-x="600" d="M129 1399h133l96 -234h-114z" />
<glyph unicode="a" horiz-adv-x="608" d="M61 164v270q0 176 164 176q98 0 150 -82h8v197q0 92 -113 92q-119 0 -190 -65h-8v163q92 45 233 46q233 0 234 -211v-750h-156v70h-8q-51 -80 -150 -80q-164 0 -164 174zM209 197q0 -76 86 -76q88 0 88 76v200q0 76 -88 76q-86 0 -86 -76v-200z" />
<glyph unicode="b" horiz-adv-x="641" d="M78 0v1423h153v-555h9q51 92 157 93q182 0 183 -226v-522q0 -223 -183 -223q-115 0 -157 90h-9v-80h-153zM233 240q0 -113 96.5 -113t96.5 113v469q0 111 -96 111t-97 -140v-440z" />
<glyph unicode="c" horiz-adv-x="503" d="M61 213v522q0 225 226 226q102 0 180 -41v-172h-8q-44 69 -141 69h-3q-102 0 -102 -90v-506q0 -90 102 -90q98 0 144 70h8v-172q-76 -39 -180 -39q-225 0 -226 223z" />
<glyph unicode="d" horiz-adv-x="641" d="M61 213v522q0 225 181 226q102 0 157 -93h9v555h155v-1423h-155v80h-9q-49 -90 -155 -90q-182 0 -183 223zM215 240q0 -113 96.5 -113t96.5 113v440q0 139 -96.5 139t-96.5 -110v-469z" />
<glyph unicode="e" horiz-adv-x="589" d="M61 233v515q0 213 218 213h30q219 0 219 -213v-347h-315v-159q0 -111 131 -111q109 0 158 66h8v-170q-88 -37 -191 -37q-258 0 -258 243zM211 541h170v188q0 94 -84 94q-86 0 -86 -94v-188z" />
<glyph unicode="f" horiz-adv-x="354" d="M27 801v147h51v314q0 96 41 135t135 39q53 0 84 -15v-157h-8q-18 29 -49 28q-49 0 -50 -53v-291h107v-147h-107v-801h-153v801h-51z" />
<glyph unicode="g" horiz-adv-x="622" d="M51 -348l70 143h8q65 -108 162 -108h2q115 0 115 129v264h-9q-49 -90 -155 -90q-182 0 -183 223v522q0 225 181 226q102 0 157 -93h9v80h155v-1138q0 -262 -260 -263q-152 0 -252 105zM215 240q0 -113 96.5 -113t96.5 113v440q0 139 -96.5 139t-96.5 -110v-469z" />
<glyph unicode="h" horiz-adv-x="647" d="M78 0v1423h153v-567h9q55 104 166 105q174 0 174 -230v-731h-156v709q0 112 -94 112h-2q-94 0 -95 -112v-709h-155z" />
<glyph unicode="i" horiz-adv-x="323" d="M51 1225q0 47 34 79.5t79 32.5q47 0 79.5 -32.5t32.5 -79.5t-32.5 -79t-79.5 -32t-80 33t-33 78zM86 0v948h152v-948h-152z" />
<glyph unicode="j" horiz-adv-x="323" d="M51 1225q0 47 34 79.5t79 32.5q47 0 79.5 -32.5t32.5 -79.5t-32.5 -79t-79.5 -32t-80 33t-33 78zM86 -438v1386h152v-1386h-152z" />
<glyph unicode="k" horiz-adv-x="616" d="M78 0v1423h153v-876h5q10 37 32 96l121 305h160l-184 -436l241 -512h-170l-160 350q-14 33 -40 103h-5v-453h-153z" />
<glyph unicode="l" horiz-adv-x="321" d="M86 0v1423h150v-1423h-150z" />
<glyph unicode="m" horiz-adv-x="972" d="M78 0v948h153v-96h9q53 109 161 109q137 0 156 -121h8q47 121 170 121q96 0 137 -66q31 -51 31 -158v-737h-155v705q0 109 -90 109t-91 -109v-705h-151v709q0 104 -92 104q-90 0 -91 -104v-709h-155z" />
<glyph unicode="n" horiz-adv-x="647" d="M78 0v948h153v-92h9q55 104 166 105q174 0 174 -230v-731h-156v709q0 112 -94 112h-2q-94 0 -95 -112v-709h-155z" />
<glyph unicode="o" horiz-adv-x="606" d="M61 211v526q0 223 224 224h37q223 0 223 -224v-526q0 -221 -223 -221h-37q-223 0 -224 221zM209 219q0 -88 94 -88t94 88v510q0 88 -94 88t-94 -88v-510z" />
<glyph unicode="p" horiz-adv-x="641" d="M78 -440v1388h153v-80h9q51 92 157 93q182 0 183 -226v-522q0 -223 -183 -223q-115 0 -157 90h-9v-520h-153zM233 240q0 -113 96.5 -113t96.5 113v469q0 111 -96 111v0q-97 -1 -97 -140v-440z" />
<glyph unicode="q" horiz-adv-x="641" d="M61 213v522q0 225 181 226q102 0 157 -93h9v80h155v-1388h-155v520h-9q-49 -90 -155 -90q-182 0 -183 223zM215 240q0 -113 96.5 -113t96.5 113v440q0 139 -96.5 139t-96.5 -110v-469z" />
<glyph unicode="r" horiz-adv-x="419" d="M78 0v948h147v-96h8q4 47 40 78t81 31q31 0 52 -15v-190h-9q-28 30 -65 30h-2q-98 0 -99 -98v-688h-153z" />
<glyph unicode="s" horiz-adv-x="532" d="M49 592v166q0 123 60 166q49 37 178 37q92 0 162 -29v-156h-9q-59 53 -145 53q-94 0 -94 -73v-131q0 -43 43 -50q2 -2 78 -2q162 0 161 -161v-215q0 -127 -67 -172q-53 -35 -185 -35q-94 0 -176 26v156h8q66 -53 160 -53q109 0 109 78v182q0 41 -41 51q-4 2 -80 2 q-162 0 -162 160z" />
<glyph unicode="t" horiz-adv-x="352" d="M27 801v147h51v248h155v-248h95v-147h-95v-623q0 -49 64 -49h31v-129q-37 -10 -101 -10q-150 0 -149 153v658h-51z" />
<glyph unicode="u" horiz-adv-x="622" d="M70 211v737h147v-729q0 -88 94.5 -88t94.5 88v729h147v-737q0 -221 -223 -221h-37q-223 0 -223 221z" />
<glyph unicode="v" horiz-adv-x="618" d="M16 948h152l113 -516q14 -72 28 -170h4q2 6 11.5 65.5t17.5 104.5l113 516h147l-223 -948h-139z" />
<glyph unicode="w" horiz-adv-x="921" d="M16 948h152l94 -510q14 -74 23 -172h4q2 14 5 39t8 63t9 68l84 512h133l84 -514q14 -92 23 -166h4q6 49 25 168l94 512h147l-182 -948h-150l-88 442q-14 90 -20 142h-4q0 -6 -8.5 -54.5t-14.5 -87.5l-88 -442h-151z" />
<glyph unicode="x" horiz-adv-x="655" d="M16 0l224 512l-193 436h162l90 -217q16 -43 29 -82h4l11 33t17 49l84 217h150l-182 -436l227 -512h-162l-125 295q-8 16 -28 80h-5q-2 -8 -28 -80l-119 -295h-156z" />
<glyph unicode="y" horiz-adv-x="647" d="M59 -348l68 143h8q25 -45 73 -76.5t91 -31.5q117 0 117 129v264h-4q-49 -90 -160 -90q-182 0 -182 223v735h155v-708q0 -113 94 -113q96 0 97 113v708h155v-1138q0 -262 -262 -263q-150 0 -250 105z" />
<glyph unicode="z" horiz-adv-x="514" d="M16 0v8l252 709q29 74 33 84h-278v147h479v-8l-252 -709q-6 -18 -18.5 -48.5t-14.5 -35.5h281v-147h-482z" />
<glyph unicode="{" horiz-adv-x="417" d="M16 506v141h33q59 0 60 94v457q0 121 44 173t152 52h90v-131h-45q-45 0 -59 -14q-25 -18 -25 -90v-428q0 -76 -12 -109q-18 -55 -76 -69v-9q57 -18 76 -71q12 -35 12 -109v-422q0 -57 13 -77q18 -27 69 -27h47v-131h-90q-113 0 -158 57q-39 51 -38 168v453q0 92 -62 92 h-31z" />
<glyph unicode="|" horiz-adv-x="344" d="M96 -121v1667h152v-1667h-152z" />
<glyph unicode="}" horiz-adv-x="417" d="M23 -133h49q51 0 69 27q12 20 13 77v422q0 74 12 109q18 53 76 71v9q-57 14 -76 69q-12 33 -12 109v428q0 61 -15.5 82.5t-68.5 21.5h-47v131h92q109 0 151.5 -52t42.5 -173v-457q0 -94 62 -94h32v-141h-30q-63 0 -64 -92v-453q0 -117 -39 -168q-43 -57 -155 -57h-92v131 z" />
<glyph unicode="~" horiz-adv-x="540" d="M47 588q39 100 127 100q39 0 98 -41q59 -39 97 -39q57 0 92 90h8l25 -127q-37 -98 -127 -98q-39 0 -99 39q-59 41 -94 41q-51 0 -94 -90h-8z" />
<glyph unicode="&#xa1;" horiz-adv-x="331" d="M53 883q0 45 33 77.5t80 32.5q45 0 77.5 -32.5t32.5 -77.5q0 -49 -30.5 -81t-79.5 -32t-81 30.5t-32 82.5zM86 -440v1052h160v-1052h-160z" />
<glyph unicode="&#xa2;" horiz-adv-x="503" d="M61 559v522q0 201 172 222v120h127v-123q53 -8 107 -34v-172h-8q-45 70 -144 69q-102 0 -102 -90v-506q0 -90 102 -90q98 0 144 70h8v-172q-53 -27 -107 -35v-123h-127v121q-172 23 -172 221z" />
<glyph unicode="&#xa3;" horiz-adv-x="626" d="M49 0v121q74 43 119 137q39 80 39 174q0 4 -6 90h-148v152h115q-106 362 -107 456q0 303 306 304q123 0 208 -39v-193h-8q-70 82 -190 82q-147 0 -148 -149q0 -68 37 -215q12 -41 32.5 -123t33.5 -123h143v-152h-115q4 -45 5 -102q0 -168 -78 -268h303v-152h-541z" />
<glyph unicode="&#xa4;" horiz-adv-x="1013" d="M45 414v127h133q-4 78 -4 92q0 43 2 53h-131v127h150q49 207 206 328q145 113 349 112q98 1 190 -26l-41 -148q-74 23 -151 23q-125 0 -224 -68q-111 -78 -149 -221h461v-127h-486q-2 -10 -2 -49q0 -14 4 -96h484v-127h-461q72 -281 385 -281q61 0 133 23l37 -144 q-106 -31 -217 -30q-432 0 -518 432h-150z" />
<glyph unicode="&#xa5;" horiz-adv-x="739" d="M16 1423h174l148 -446q18 -61 37 -143h4q20 88 35 141l143 448h168l-272 -747h170v-152h-168v-170h168v-151h-168v-203h-164v203h-168v151h168v170h-168v152h168z" />
<glyph unicode="&#xa6;" horiz-adv-x="509" d="M178 293h154v-711h-154v711zM178 758v712h154v-712h-154z" />
<glyph unicode="&#xa7;" horiz-adv-x="638" d="M61 481v258q0 121 99 156q-57 33 -58 160v135q0 141 52.5 193.5t193.5 52.5q106 0 193 -31v-162h-9q-66 53 -165 53q-90 0 -101 -47q-4 -29 -4 -57v-135q0 -55 107 -101q133 -59 163 -98q45 -57 46 -182v-256q0 -125 -99 -158q57 -33 58 -160v-133q0 -141 -52.5 -193 t-193.5 -52q-106 0 -193 30v162h8q66 -53 168 -53q88 0 99 47q4 25 4 57v133q0 55 -107 101q-133 59 -164 98q-45 57 -45 182zM219 475q0 -86 66 -115l71 -30q64 2 64 104v242q0 86 -66 115l-71 30q-63 -2 -64 -104v-242z" />
<glyph unicode="&#xa8;" horiz-adv-x="600" d="M78 1245q0 35 26.5 61.5t61.5 26.5q37 0 63.5 -26.5t26.5 -61.5q0 -37 -26.5 -62.5t-63.5 -25.5q-35 0 -61.5 25.5t-26.5 62.5zM346 1245q0 35 26.5 61.5t61.5 26.5q37 0 63.5 -26.5t26.5 -61.5q0 -37 -26.5 -62.5t-63.5 -25.5q-35 0 -61.5 25.5t-26.5 62.5z" />
<glyph unicode="&#xa9;" horiz-adv-x="737" d="M68 219v985q0 231 260 232h82q260 0 260 -232v-985q0 -229 -260 -229h-82q-260 0 -260 229zM147 240q0 -106 60 -150q51 -35 162 -35q109 0 161 35q60 44 60 150v944q0 106 -60 149q-53 35 -161 35q-111 0 -162 -35q-59 -43 -60 -149v-944zM244 469v485q0 123 141 123 q51 0 94 -18v-96h-8q-20 37 -70 36q-78 0 -77 -61v-453q0 -61 79 -61q47 0 68 37h8v-94q-39 -20 -94 -21q-141 0 -141 123z" />
<glyph unicode="&#xaa;" horiz-adv-x="305" d="M31 1030v135q0 88 82 88q49 0 71 -41h9v99q0 47 -58 47q-59 0 -92 -33h-8v82q55 23 119 23q117 0 116 -107v-375h-77v35h-9q-25 -41 -71 -41q-82 0 -82 88zM104 1047q0 -37 43 -37q46 0 46 37v100q0 39 -46 39q-43 0 -43 -39v-100z" />
<glyph unicode="&#xab;" horiz-adv-x="788" d="M20 473l242 475h176l-237 -475l237 -473h-176zM346 473l242 475h178l-238 -475l238 -473h-178z" />
<glyph unicode="&#xac;" horiz-adv-x="602" d="M-14 1546h155l477 -1667h-157z" />
<glyph unicode="&#xad;" horiz-adv-x="530" d="M47 502v151h438v-151h-438z" />
<glyph unicode="&#xae;" horiz-adv-x="737" d="M68 219v985q0 231 260 232h82q260 0 260 -232v-985q0 -229 -260 -229h-82q-260 0 -260 229zM147 240q0 -106 60 -150q51 -35 162 -35q109 0 161 35q60 44 60 150v944q0 106 -60 149q-53 35 -161 35q-111 0 -162 -35q-59 -43 -60 -149v-944zM238 350v723h139 q125 0 125 -125v-108q0 -96 -76 -105v-8q43 -12 55 -88q2 -57 17 -201q10 -61 28 -80v-8h-86q-16 29 -22 96l-6 123q-6 84 -19.5 111t-40.5 27h-35v-357h-79zM317 780h58q47 0 47 51v115q0 51 -47 51h-58v-217z" />
<glyph unicode="&#xaf;" horiz-adv-x="600" d="M86 1165v107h426v-107h-426z" />
<glyph unicode="&#xb0;" horiz-adv-x="614" d="M23 1151q0 117 83.5 201t200.5 84q115 0 199 -84t84 -201q0 -115 -84 -199q-82 -82 -199 -82q-119 0 -201 82q-84 84 -83 199zM160 1151q0 -59 44 -101t103.5 -42t102.5 42t43 101q0 61 -43 104t-102.5 43t-103.5 -43t-44 -104z" />
<glyph unicode="&#xb1;" horiz-adv-x="569" d="M27 801v147h260q211 0 211 -211v-207q0 -190 -172 -190v-8q172 0 172 -191v-370q0 -211 -211 -211h-131v151h96q86 0 86 86v377q0 86 -86 86h-47v152h47q86 0 86 86v217q0 86 -86 86h-225z" />
<glyph unicode="&#xb2;" horiz-adv-x="679" d="M27 801v147h51v254q0 115 47 168q59 66 194 66q102 0 162 -37q57 37 162 37q106 0 166 -41v-168h-8q-43 66 -131 65q-115 0 -115 -98v-1194h-154v801h-51v147h51v254q0 43 7 78q-27 12 -62 12q-115 0 -115 -98v-1194h-153v801h-51z" />
<glyph unicode="&#xb3;" horiz-adv-x="716" d="M27 801v147h51v248h155v-246h203q211 0 211 -211v-207q0 -190 -172 -190v-8q172 0 172 -191v-370q0 -211 -211 -211h-131v151h96q86 0 86 86v377q0 86 -86 86h-47v152h47q86 0 86 86v217q0 86 -86 86h-73v-2h-95v-623q0 -49 64 -49h31v-129q-37 -10 -101 -10 q-150 0 -149 153v658h-51z" />
<glyph unicode="&#xb4;" horiz-adv-x="600" d="M240 1165l94 234h133l-113 -234h-114z" />
<glyph unicode="&#xb6;" horiz-adv-x="833" d="M37 952v248q0 100 61.5 161.5t161.5 61.5h488v-1687h-154v1534h-125v-1534h-152v993h-57q-100 0 -161.5 62.5t-61.5 160.5z" />
<glyph unicode="&#xb7;" horiz-adv-x="272" d="M23 727q0 47 32.5 80t79.5 33t80 -33t33 -80t-33 -79t-80 -32t-79.5 33t-32.5 78z" />
<glyph unicode="&#xb8;" horiz-adv-x="600" d="M242 -260h8q29 -37 67 -37q43 0 43 43v72q0 41 -38 41h-58v157h82v-90h16q82 0 82 -84v-116q0 -100 -116 -101q-49 0 -86 25v90z" />
<glyph unicode="&#xb9;" horiz-adv-x="1370" d="M27 801v147h51v254q0 115 47 168q59 66 194 66q106 0 166 -41v-168h-8q-43 66 -131 65q-115 0 -115 -98v-1194h-153v801h-51zM358 213v522q0 225 226 226q102 0 180 -41v-172h-8q-45 70 -144 69q-102 0 -102 -90v-506q0 -90 102 -90q98 0 144 70h8v-172q-76 -39 -180 -39 q-225 0 -226 223zM803 0v1423h153v-567h9q55 104 165 105q174 0 175 -230v-731h-156v709q0 113 -96 112q-94 0 -95 -112v-709h-155z" />
<glyph unicode="&#xba;" horiz-adv-x="303" d="M31 1055v262q0 113 112 113h19q111 0 110 -113v-262q0 -113 -110 -113h-19q-113 0 -112 113zM104 1059q0 -45 47.5 -45t47.5 45v254q0 45 -47.5 45t-47.5 -45v-254z" />
<glyph unicode="&#xbb;" horiz-adv-x="788" d="M23 0l237 473l-237 475h178l241 -475l-241 -473h-178zM350 0l238 473l-238 475h176l242 -475l-242 -473h-176z" />
<glyph unicode="&#xbc;" horiz-adv-x="706" d="M27 801v147h51v213q0 274 278 275q84 0 152 -23q35 23 98 23q51 0 86 -15v-157h-8q-18 29 -49 28q-49 0 -49 -53v-291h106v-147h-106v-801h-156v801h-199v-801h-153v801h-51zM231 948h199v295l4 37q-25 8 -80 4q-123 -10 -123 -139v-197z" />
<glyph unicode="&#xbd;" horiz-adv-x="1017" d="M27 801v147h51v201q0 274 278 274q125 0 201 -39q51 39 154 39h229v-1423h-156v1276h-61q-137 0 -137 -131v-197h96v-147h-96v-801h-156v801h-199v-801h-153v801h-51zM231 948h199v201q0 70 14 115q-39 10 -79 8q-133 -6 -134 -139v-185z" />
<glyph unicode="&#xbe;" horiz-adv-x="1017" d="M27 801v147h51v213q0 274 278 275q125 0 201 -39q51 39 154 39q133 0 207 -31v-180h-9q-70 63 -176 63q-147 0 -147 -143v-197h354v-948h-156v801h-198v-801h-156v801h-199v-801h-153v801h-51zM231 948h199v213q0 70 14 115q-39 10 -79 8q-133 -6 -134 -139v-197z" />
<glyph unicode="&#xbf;" horiz-adv-x="446" d="M29 -227q0 94 96 348t96 305q0 49 -51 49q-53 0 -78 -39h-8v162q63 25 115 25q84 0 130 -50.5t46 -138.5q0 -74 -96 -328q-96 -252 -97 -309q0 -96 92 -96q86 0 142 68h8v-168q-78 -53 -191 -54q-205 0 -204 226zM102 883q0 45 33 77.5t80 32.5t80 -31.5t33 -78.5 t-33 -80t-80 -33t-80 33t-33 80z" />
<glyph unicode="&#xc0;" d="M78 0v1180q0 139 66.5 197.5t209.5 58.5q141 0 205 -56q70 -61 70 -200v-1180h-164v690h-223v-690h-164zM166 1747h133l96 -234h-114zM242 842h223v340q0 109 -111 108q-113 0 -112 -108v-340z" />
<glyph unicode="&#xc1;" d="M78 0v1180q0 139 66.5 197.5t209.5 58.5q141 0 205 -56q70 -61 70 -200v-1180h-164v690h-223v-690h-164zM242 842h223v340q0 109 -111 108q-113 0 -112 -108v-340zM285 1513l94 234h133l-113 -234h-114z" />
<glyph unicode="&#xc2;" d="M78 0v1180q0 139 66.5 197.5t209.5 58.5q141 0 205 -56q70 -61 70 -200v-1180h-164v690h-223v-690h-164zM143 1579l199 205l195 -205l-66 -74l-131 135l-127 -135zM242 842h223v340q0 109 -111 108q-113 0 -112 -108v-340z" />
<glyph unicode="&#xc3;" d="M78 0v1180q0 139 66.5 197.5t209.5 58.5q141 0 205 -56q70 -61 70 -200v-1180h-164v690h-223v-690h-164zM168 1509q0 55 25 96q27 51 79 52q31 0 78 -27t60 -27q31 0 30 41h74q0 -145 -98 -145q-33 0 -68 26.5t-57 26.5q-35 0 -35 -43h-88zM242 842h223v340 q0 109 -111 108q-113 0 -112 -108v-340z" />
<glyph unicode="&#xc4;" d="M78 0v1180q0 139 66.5 197.5t209.5 58.5q141 0 205 -56q70 -61 70 -200v-1180h-164v690h-223v-690h-164zM117 1593q0 35 26.5 61.5t61.5 26.5q37 0 63.5 -26.5t26.5 -61.5q0 -37 -26.5 -62.5t-63.5 -25.5q-35 0 -61.5 25.5t-26.5 62.5zM242 842h223v340q0 109 -111 108 q-113 0 -112 -108v-340zM385 1593q0 35 26.5 61.5t61.5 26.5q37 0 63.5 -26.5t26.5 -61.5q0 -37 -26.5 -62.5t-63.5 -25.5q-35 0 -61.5 25.5t-26.5 62.5z" />
<glyph unicode="&#xc5;" d="M78 0v1180q0 139 66.5 197.5t209.5 58.5q141 0 205 -56q70 -61 70 -200v-1180h-164v690h-223v-690h-164zM197 1642q0 59 41 100.5t100 41.5t100 -41t41 -100.5t-41 -100.5t-100 -41q-57 0 -99 42t-42 99zM242 842h223v340q0 109 -111 108q-113 0 -112 -108v-340z M279 1642.5q0 -59.5 59 -59.5t59 59.5t-59 59.5t-59 -59.5z" />
<glyph unicode="&#xc6;" horiz-adv-x="911" d="M23 0l366 1423h479v-151h-239v-443h227v-151h-227v-526h245v-152h-403v377h-201l-96 -377h-151zM309 528h166v631h-8z" />
<glyph unicode="&#xc7;" horiz-adv-x="581" d="M68 240v944q0 252 286 252q104 0 191 -39v-193h-8q-49 74 -150 74q-156 0 -156 -125v-883q0 -125 156 -125q100 0 150 74h8v-192q-78 -31 -166 -37v-64h16q82 0 82 -84v-116q0 -100 -117 -101q-49 0 -84 25v90h9q27 -37 65 -37q45 0 45 43v72q0 41 -41 41h-57v133 q-229 25 -229 248z" />
<glyph unicode="&#xc8;" horiz-adv-x="581" d="M66 240v327q0 190 172 191v8q-172 0 -172 190v228q0 240 239 239h189v-151h-168q-96 0 -97 -105v-231q0 -98 97 -98h161v-152h-161q-96 0 -97 -98v-332q0 -104 97 -104h176v-152h-197q-240 0 -239 240zM164 1747h133l96 -234h-114z" />
<glyph unicode="&#xc9;" horiz-adv-x="581" d="M66 240v327q0 190 172 191v8q-172 0 -172 190v228q0 240 239 239h189v-151h-168q-96 0 -97 -105v-231q0 -98 97 -98h161v-152h-161q-96 0 -97 -98v-332q0 -104 97 -104h176v-152h-197q-240 0 -239 240zM226 1513l94 234h133l-113 -234h-114z" />
<glyph unicode="&#xca;" horiz-adv-x="581" d="M66 240v327q0 190 172 191v8q-172 0 -172 190v228q0 240 239 239h189v-151h-168q-96 0 -97 -105v-231q0 -98 97 -98h161v-152h-161q-96 0 -97 -98v-332q0 -104 97 -104h176v-152h-197q-240 0 -239 240zM112 1579l199 205l195 -205l-66 -74l-131 135l-127 -135z" />
<glyph unicode="&#xcb;" horiz-adv-x="581" d="M66 240v327q0 190 172 191v8q-172 0 -172 190v228q0 240 239 239h189v-151h-168q-96 0 -97 -105v-231q0 -98 97 -98h161v-152h-161q-96 0 -97 -98v-332q0 -104 97 -104h176v-152h-197q-240 0 -239 240zM82 1593q0 35 26.5 61.5t61.5 26.5q37 0 63.5 -26.5t26.5 -61.5 q0 -37 -26.5 -62.5t-63.5 -25.5q-35 0 -61.5 25.5t-26.5 62.5zM350 1593q0 35 26.5 61.5t61.5 26.5q37 0 63.5 -26.5t26.5 -61.5q0 -37 -26.5 -62.5t-63.5 -25.5q-35 0 -61.5 25.5t-26.5 62.5z" />
<glyph unicode="&#xcc;" horiz-adv-x="358" d="M2 1747h133l96 -234h-114zM96 0v1423h164v-1423h-164z" />
<glyph unicode="&#xcd;" horiz-adv-x="358" d="M96 0v1423h164v-1423h-164zM119 1513l94 234h133l-113 -234h-114z" />
<glyph unicode="&#xce;" horiz-adv-x="358" d="M-21 1579l199 205l195 -205l-66 -74l-131 135l-127 -135zM96 0v1423h164v-1423h-164z" />
<glyph unicode="&#xcf;" horiz-adv-x="358" d="M-47 1593q0 35 26.5 61.5t61.5 26.5q37 0 63.5 -26.5t26.5 -61.5q0 -37 -26.5 -62.5t-63.5 -25.5q-35 0 -61.5 25.5t-26.5 62.5zM96 0v1423h164v-1423h-164zM221 1593q0 35 26.5 61.5t61.5 26.5q37 0 63.5 -26.5t26.5 -61.5q0 -37 -26.5 -62.5t-63.5 -25.5 q-35 0 -61.5 25.5t-26.5 62.5z" />
<glyph unicode="&#xd0;" horiz-adv-x="714" d="M27 698v152h59v573h309q252 0 252 -249v-924q0 -250 -252 -250h-309v698h-59zM250 152h137q96 0 96 102v915q0 102 -96 103h-137v-422h108v-152h-108v-546z" />
<glyph unicode="&#xd1;" horiz-adv-x="817" d="M86 0v1423h164v-84h8q41 96 156 97q223 0 223 -232v-1204h-162v1182q0 109 -112.5 108.5t-112.5 -108.5v-1182h-164zM231 1509q0 55 25 96q27 51 79 52q31 0 78 -27t60 -27q31 0 30 41h74q0 -145 -98 -145q-33 0 -68 26.5t-57 26.5q-35 0 -35 -43h-88z" />
<glyph unicode="&#xd2;" horiz-adv-x="724" d="M68 238v948q0 250 249 250h91q250 0 249 -250v-948q0 -248 -249 -248h-91q-250 0 -249 248zM188 1747h133l96 -234h-114zM231 246q0 -109 131.5 -109t131.5 109v932q0 109 -131.5 108.5t-131.5 -108.5v-932z" />
<glyph unicode="&#xd3;" horiz-adv-x="724" d="M68 238v948q0 250 249 250h91q250 0 249 -250v-948q0 -248 -249 -248h-91q-250 0 -249 248zM231 246q0 -109 131.5 -109t131.5 109v932q0 109 -131.5 108.5t-131.5 -108.5v-932zM291 1513l94 234h133l-113 -234h-114z" />
<glyph unicode="&#xd4;" horiz-adv-x="724" d="M68 238v948q0 250 249 250h91q250 0 249 -250v-948q0 -248 -249 -248h-91q-250 0 -249 248zM161 1579l199 205l195 -205l-66 -74l-131 135l-127 -135zM231 246q0 -109 131.5 -109t131.5 109v932q0 109 -131.5 108.5t-131.5 -108.5v-932z" />
<glyph unicode="&#xd5;" horiz-adv-x="724" d="M68 238v948q0 250 249 250h91q250 0 249 -250v-948q0 -248 -249 -248h-91q-250 0 -249 248zM186 1509q0 55 25 96q27 51 79 52q31 0 78 -27t60 -27q31 0 30 41h74q0 -145 -98 -145q-33 0 -68 26.5t-57 26.5q-35 0 -35 -43h-88zM231 246q0 -109 131.5 -109t131.5 109v932 q0 109 -131.5 108.5t-131.5 -108.5v-932z" />
<glyph unicode="&#xd6;" horiz-adv-x="724" d="M68 238v948q0 250 249 250h91q250 0 249 -250v-948q0 -248 -249 -248h-91q-250 0 -249 248zM137 1593q0 35 26.5 61.5t61.5 26.5q37 0 63.5 -26.5t26.5 -61.5q0 -37 -26.5 -62.5t-63.5 -25.5q-35 0 -61.5 25.5t-26.5 62.5zM231 246q0 -109 131.5 -109t131.5 109v932 q0 109 -131.5 108.5t-131.5 -108.5v-932zM405 1593q0 35 26.5 61.5t61.5 26.5q37 0 63.5 -26.5t26.5 -61.5q0 -37 -26.5 -62.5t-63.5 -25.5q-35 0 -61.5 25.5t-26.5 62.5z" />
<glyph unicode="&#xd7;" horiz-adv-x="624" d="M49 733l109 109l155 -158l136 135l106 -106l-135 -135l158 -156l-109 -109l-158 156l-133 -133l-106 106l133 133z" />
<glyph unicode="&#xd8;" horiz-adv-x="724" d="M68 238v948q0 250 249 250h91q12 0 65 -4l16 73h136l-31 -127q63 -61 63 -192v-948q0 -248 -249 -248h-91q-14 0 -67 4l-19 -74h-133l31 127q-61 63 -61 191zM231 418l211 854q-27 14 -80 14q-131 0 -131 -108v-760zM279 152q29 -14 83 -15q132 0 132 109v766z" />
<glyph unicode="&#xd9;" horiz-adv-x="745" d="M78 238v1185h164v-1177q0 -70 37 -90q29 -18 94 -18.5t94 18.5q37 20 37 90v1177h164v-1185q0 -248 -250 -248h-90q-250 0 -250 248zM201 1747h133l96 -234h-114z" />
<glyph unicode="&#xda;" horiz-adv-x="745" d="M78 238v1185h164v-1177q0 -70 37 -90q29 -18 94 -18.5t94 18.5q37 20 37 90v1177h164v-1185q0 -248 -250 -248h-90q-250 0 -250 248zM310 1513l94 234h133l-113 -234h-114z" />
<glyph unicode="&#xdb;" horiz-adv-x="745" d="M78 238v1185h164v-1177q0 -70 37 -90q29 -18 94 -18.5t94 18.5q37 20 37 90v1177h164v-1185q0 -248 -250 -248h-90q-250 0 -250 248zM174 1579l199 205l195 -205l-66 -74l-131 135l-127 -135z" />
<glyph unicode="&#xdc;" horiz-adv-x="745" d="M78 238v1185h164v-1177q0 -70 37 -90q29 -18 94 -18.5t94 18.5q37 20 37 90v1177h164v-1185q0 -248 -250 -248h-90q-250 0 -250 248zM146 1593q0 35 26.5 61.5t61.5 26.5q37 0 63.5 -26.5t26.5 -61.5q0 -37 -26.5 -62.5t-63.5 -25.5q-35 0 -61.5 25.5t-26.5 62.5z M414 1593q0 35 26.5 61.5t61.5 26.5q37 0 63.5 -26.5t26.5 -61.5q0 -37 -26.5 -62.5t-63.5 -25.5q-35 0 -61.5 25.5t-26.5 62.5z" />
<glyph unicode="&#xdd;" horiz-adv-x="735" d="M61 803v620h164v-624q0 -109 113 -109t113 109v624h163v-620q0 -221 -194 -250v-553h-164v553q-195 29 -195 250zM295 1513l94 234h133l-113 -234h-114z" />
<glyph unicode="&#xde;" horiz-adv-x="671" d="M86 0v1423h162v-323h137q250 0 250 -250v-250q0 -250 -250 -250h-135v-350h-164zM250 502h127q94 0 94 102v242q0 102 -94 102h-127v-446z" />
<glyph unicode="&#xdf;" horiz-adv-x="669" d="M27 801v147h51v254q0 115 47 168q59 66 194 66q106 0 166 -41v-168h-8q-43 66 -131 65q-117 0 -117 -90v-254h160q211 0 211 -211v-207q0 -190 -172 -190v-8q172 0 172 -191v-370q0 -211 -211 -211h-131v151h96q86 0 86 86v377q0 86 -86 86h-47v152h47q86 0 86 86v217 q0 86 -86 86h-123v-801h-153v801h-51z" />
<glyph unicode="&#xe0;" horiz-adv-x="608" d="M61 164v270q0 176 164 176q98 0 150 -82h8v197q0 92 -113 92q-119 0 -190 -65h-8v163q92 45 233 46q233 0 234 -211v-750h-156v70h-8q-51 -80 -150 -80q-164 0 -164 174zM135 1293h133l96 -234h-114zM209 197q0 -76 86 -76q88 0 88 76v200q0 76 -88 76q-86 0 -86 -76 v-200z" />
<glyph unicode="&#xe1;" horiz-adv-x="608" d="M61 164v270q0 176 164 176q98 0 150 -82h8v197q0 92 -113 92q-119 0 -190 -65h-8v163q92 45 233 46q233 0 234 -211v-750h-156v70h-8q-51 -80 -150 -80q-164 0 -164 174zM207 1059l94 234h133l-113 -234h-114zM209 197q0 -76 86 -76q88 0 88 76v200q0 76 -88 76 q-86 0 -86 -76v-200z" />
<glyph unicode="&#xe2;" horiz-adv-x="608" d="M61 164v270q0 176 164 176q98 0 150 -82h8v197q0 92 -113 92q-119 0 -190 -65h-8v163q92 45 233 46q233 0 234 -211v-750h-156v70h-8q-51 -80 -150 -80q-164 0 -164 174zM104 1133l199 205l195 -205l-66 -74l-131 135l-127 -135zM209 197q0 -76 86 -76q88 0 88 76v200 q0 76 -88 76q-86 0 -86 -76v-200z" />
<glyph unicode="&#xe3;" horiz-adv-x="608" d="M61 164v270q0 176 164 176q98 0 150 -82h8v197q0 92 -113 92q-119 0 -190 -65h-8v163q92 45 233 46q233 0 234 -211v-750h-156v70h-8q-51 -80 -150 -80q-164 0 -164 174zM127 1065q0 55 25 96q27 51 79 52q31 0 78 -27t60 -27q31 0 30 41h74q0 -145 -98 -145 q-33 0 -68 26.5t-57 26.5q-35 0 -35 -43h-88zM209 197q0 -76 86 -76q88 0 88 76v200q0 76 -88 76q-86 0 -86 -76v-200z" />
<glyph unicode="&#xe4;" horiz-adv-x="608" d="M61 164v270q0 176 164 176q98 0 150 -82h8v197q0 92 -113 92q-119 0 -190 -65h-8v163q92 45 233 46q233 0 234 -211v-750h-156v70h-8q-51 -80 -150 -80q-164 0 -164 174zM78 1147q0 35 26.5 61.5t61.5 26.5q37 0 63.5 -26.5t26.5 -61.5q0 -37 -26.5 -62.5t-63.5 -25.5 q-35 0 -61.5 25.5t-26.5 62.5zM209 197q0 -76 86 -76q88 0 88 76v200q0 76 -88 76q-86 0 -86 -76v-200zM346 1147q0 35 26.5 61.5t61.5 26.5q37 0 63.5 -26.5t26.5 -61.5q0 -37 -26.5 -62.5t-63.5 -25.5q-35 0 -61.5 25.5t-26.5 62.5z" />
<glyph unicode="&#xe5;" horiz-adv-x="608" d="M61 164v270q0 176 164 176q98 0 150 -82h8v197q0 92 -113 92q-119 0 -190 -65h-8v163q92 45 233 46q233 0 234 -211v-750h-156v70h-8q-51 -80 -150 -80q-164 0 -164 174zM158 1200q0 59 41 100.5t100 41.5t100 -41t41 -100.5t-41 -100.5t-100 -41q-57 0 -99 42t-42 99z M209 197q0 -76 86 -76q88 0 88 76v200q0 76 -88 76q-86 0 -86 -76v-200zM240 1200.5q0 -59.5 59 -59.5t59 59.5t-59 59.5t-59 -59.5z" />
<glyph unicode="&#xe6;" horiz-adv-x="917" d="M61 164v270q0 176 164 176q98 0 150 -82h8v197q0 92 -113 92q-119 0 -190 -65h-8v163q92 45 233 46q106 0 150 -64h8q51 63 170 64q223 0 223 -213v-347h-317v-159q0 -111 133 -111q109 0 157 66h9v-170q-88 -37 -193 -37q-145 0 -211 90h-8q-84 -90 -201 -90 q-164 0 -164 174zM209 197q0 -76 86 -76q88 0 88 76v200q0 76 -88 76q-86 0 -86 -76v-200zM539 541h170v188q0 94 -84 94q-86 0 -86 -94v-188z" />
<glyph unicode="&#xe7;" horiz-adv-x="503" d="M61 213v522q0 225 226 226q102 0 180 -41v-172h-8q-45 70 -144 69q-102 0 -102 -90v-506q0 -90 102 -90q98 0 144 70h8v-172q-66 -31 -145 -37v-66h16q82 0 82 -84v-116q0 -100 -117 -101q-49 0 -84 25v90h8q27 -37 68 -37q43 0 43 43v72q0 41 -39 41h-59v133 q-178 18 -179 221z" />
<glyph unicode="&#xe8;" horiz-adv-x="589" d="M61 233v515q0 213 218 213h30q219 0 219 -213v-347h-315v-159q0 -111 131 -111q109 0 158 66h8v-170q-88 -37 -191 -37q-258 0 -258 243zM123 1293h133l96 -234h-114zM211 541h170v188q0 94 -84 94q-86 0 -86 -94v-188z" />
<glyph unicode="&#xe9;" horiz-adv-x="589" d="M61 233v515q0 213 218 213h30q219 0 219 -213v-347h-315v-159q0 -111 131 -111q109 0 158 66h8v-170q-88 -37 -191 -37q-258 0 -258 243zM211 541h170v188q0 94 -84 94q-86 0 -86 -94v-188zM220 1059l94 234h133l-113 -234h-114z" />
<glyph unicode="&#xea;" horiz-adv-x="589" d="M61 233v515q0 213 218 213h30q219 0 219 -213v-347h-315v-159q0 -111 131 -111q109 0 158 66h8v-170q-88 -37 -191 -37q-258 0 -258 243zM98 1133l199 205l195 -205l-66 -74l-131 135l-127 -135zM211 541h170v188q0 94 -84 94q-86 0 -86 -94v-188z" />
<glyph unicode="&#xeb;" horiz-adv-x="589" d="M61 233v515q0 213 218 213h30q219 0 219 -213v-347h-315v-159q0 -111 131 -111q109 0 158 66h8v-170q-88 -37 -191 -37q-258 0 -258 243zM72 1147q0 35 26.5 61.5t61.5 26.5q37 0 63.5 -26.5t26.5 -61.5q0 -37 -26.5 -62.5t-63.5 -25.5q-35 0 -61.5 25.5t-26.5 62.5z M211 541h170v188q0 94 -84 94q-86 0 -86 -94v-188zM340 1147q0 35 26.5 61.5t61.5 26.5q37 0 63.5 -26.5t26.5 -61.5q0 -37 -26.5 -62.5t-63.5 -25.5q-35 0 -61.5 25.5t-26.5 62.5z" />
<glyph unicode="&#xec;" horiz-adv-x="323" d="M-23 1293h133l96 -234h-114zM86 0v948h152v-948h-152z" />
<glyph unicode="&#xed;" horiz-adv-x="323" d="M86 0v948h152v-948h-152zM107 1059l94 234h133l-113 -234h-114z" />
<glyph unicode="&#xee;" horiz-adv-x="323" d="M-39 1133l199 205l195 -205l-66 -74l-131 135l-127 -135zM86 0v948h152v-948h-152z" />
<glyph unicode="&#xef;" horiz-adv-x="323" d="M-63 1147q0 35 26.5 61.5t61.5 26.5q37 0 63.5 -26.5t26.5 -61.5q0 -37 -26.5 -62.5t-63.5 -25.5q-35 0 -61.5 25.5t-26.5 62.5zM86 0v948h152v-948h-152zM205 1147q0 35 26.5 61.5t61.5 26.5q37 0 63.5 -26.5t26.5 -61.5q0 -37 -26.5 -62.5t-63.5 -25.5 q-35 0 -61.5 25.5t-26.5 62.5z" />
<glyph unicode="&#xf0;" horiz-adv-x="614" d="M61 211v543q0 207 207 207h27q78 0 104 -39h9v69q0 102 -31 160l-53 -57l-74 88l57 63q-53 47 -129 47v131q119 0 219 -75l58 61l73 -94l-51 -55q68 -113 68 -259v-790q0 -221 -223 -221h-37q-223 0 -224 221zM209 219q0 -88 94 -88t94 88v510q0 88 -94 88t-94 -88v-510z " />
<glyph unicode="&#xf1;" horiz-adv-x="647" d="M78 0v948h153v-92h9q55 104 166 105q174 0 174 -230v-731h-156v709q0 113 -96 112q-94 0 -95 -112v-709h-155zM145 1069q0 55 25 96q27 51 79 52q31 0 78 -27t60 -27q31 0 30 41h74q0 -145 -98 -145q-33 0 -68 26.5t-57 26.5q-35 0 -35 -43h-88z" />
<glyph unicode="&#xf2;" horiz-adv-x="606" d="M61 211v526q0 223 224 224h37q223 0 223 -224v-526q0 -221 -223 -221h-37q-223 0 -224 221zM131 1293h133l96 -234h-114zM209 219q0 -88 94 -88t94 88v510q0 88 -94 88t-94 -88v-510z" />
<glyph unicode="&#xf3;" horiz-adv-x="606" d="M61 211v526q0 223 224 224h37q223 0 223 -224v-526q0 -221 -223 -221h-37q-223 0 -224 221zM209 219q0 -88 94 -88t94 88v510q0 88 -94 88t-94 -88v-510zM242 1059l94 234h133l-113 -234h-114z" />
<glyph unicode="&#xf4;" horiz-adv-x="606" d="M61 211v526q0 223 224 224h37q223 0 223 -224v-526q0 -221 -223 -221h-37q-223 0 -224 221zM106 1133l199 205l195 -205l-66 -74l-131 135l-127 -135zM209 219q0 -88 94 -88t94 88v510q0 88 -94 88t-94 -88v-510z" />
<glyph unicode="&#xf5;" horiz-adv-x="606" d="M61 211v526q0 223 224 224h37q223 0 223 -224v-526q0 -221 -223 -221h-37q-223 0 -224 221zM129 1065q0 55 25 96q27 51 79 52q31 0 78 -27t60 -27q31 0 30 41h74q0 -145 -98 -145q-33 0 -68 26.5t-57 26.5q-35 0 -35 -43h-88zM209 219q0 -88 94 -88t94 88v510 q0 88 -94 88t-94 -88v-510z" />
<glyph unicode="&#xf6;" horiz-adv-x="606" d="M61 211v526q0 223 224 224h37q223 0 223 -224v-526q0 -221 -223 -221h-37q-223 0 -224 221zM80 1147q0 35 26.5 61.5t61.5 26.5q37 0 63.5 -26.5t26.5 -61.5q0 -37 -26.5 -62.5t-63.5 -25.5q-35 0 -61.5 25.5t-26.5 62.5zM209 219q0 -88 94 -88t94 88v510q0 88 -94 88 t-94 -88v-510zM348 1147q0 35 26.5 61.5t61.5 26.5q37 0 63.5 -26.5t26.5 -61.5q0 -37 -26.5 -62.5t-63.5 -25.5q-35 0 -61.5 25.5t-26.5 62.5z" />
<glyph unicode="&#xf7;" horiz-adv-x="851" d="M55 528v136h744v-136h-744zM322 324q0 45 29.5 74.5t72.5 29.5t74.5 -30.5t31.5 -73.5t-31.5 -74t-74.5 -31t-72.5 30t-29.5 75zM322 866q0 45 29.5 76t72.5 31t74.5 -31t31.5 -76q0 -43 -31.5 -72.5t-74.5 -29.5t-72.5 28.5t-29.5 73.5z" />
<glyph unicode="&#xf8;" horiz-adv-x="606" d="M61 211v526q0 223 224 224h86l20 69h119l-31 -115q66 -53 66 -178v-526q0 -221 -223 -221h-89l-18 -70h-121l31 115q-63 55 -64 176zM209 307l135 506q-33 4 -41 4q-94 0 -94 -88v-422zM264 135q29 -4 39 -4q94 0 94 88v424z" />
<glyph unicode="&#xf9;" horiz-adv-x="622" d="M70 211v737h147v-729q0 -88 94.5 -88t94.5 88v729h147v-737q0 -221 -223 -221h-37q-223 0 -223 221zM137 1293h133l96 -234h-114z" />
<glyph unicode="&#xfa;" horiz-adv-x="622" d="M70 211v737h147v-729q0 -88 94.5 -88t94.5 88v729h147v-737q0 -221 -223 -221h-37q-223 0 -223 221zM248 1059l94 234h133l-113 -234h-114z" />
<glyph unicode="&#xfb;" horiz-adv-x="622" d="M70 211v737h147v-729q0 -88 94.5 -88t94.5 88v729h147v-737q0 -221 -223 -221h-37q-223 0 -223 221zM112 1133l199 205l195 -205l-66 -74l-131 135l-127 -135z" />
<glyph unicode="&#xfc;" horiz-adv-x="622" d="M70 211v737h147v-729q0 -88 94.5 -88t94.5 88v729h147v-737q0 -221 -223 -221h-37q-223 0 -223 221zM86 1147q0 35 26.5 61.5t61.5 26.5q37 0 63.5 -26.5t26.5 -61.5q0 -37 -26.5 -62.5t-63.5 -25.5q-35 0 -61.5 25.5t-26.5 62.5zM354 1147q0 35 26.5 61.5t61.5 26.5 q37 0 63.5 -26.5t26.5 -61.5q0 -37 -26.5 -62.5t-63.5 -25.5q-35 0 -61.5 25.5t-26.5 62.5z" />
<glyph unicode="&#xfd;" horiz-adv-x="647" d="M59 -348l68 143h8q25 -45 73 -76.5t91 -31.5q117 0 117 129v264h-4q-49 -90 -160 -90q-182 0 -182 223v735h155v-708q0 -113 94 -113q96 0 97 113v708h155v-1138q0 -262 -262 -263q-150 0 -250 105zM254 1059l94 234h133l-113 -234h-114z" />
<glyph unicode="&#xfe;" horiz-adv-x="641" d="M78 -440v1788h153v-480h9q51 92 157 93q182 0 183 -226v-522q0 -223 -183 -223q-115 0 -157 90h-9v-520h-153zM233 240q0 -113 96.5 -113t96.5 113v469q0 111 -96.5 110.5t-96.5 -139.5v-440z" />
<glyph unicode="&#xff;" horiz-adv-x="647" d="M59 -348l68 143h8q25 -45 73 -76.5t91 -31.5q117 0 117 129v264h-4q-49 -90 -160 -90q-182 0 -182 223v735h155v-708q0 -113 94 -113q96 0 97 113v708h155v-1138q0 -262 -262 -263q-150 0 -250 105zM92 1147q0 35 26.5 61.5t61.5 26.5q37 0 63.5 -26.5t26.5 -61.5 q0 -37 -26.5 -62.5t-63.5 -25.5q-35 0 -61.5 25.5t-26.5 62.5zM360 1147q0 35 26.5 61.5t61.5 26.5q37 0 63.5 -26.5t26.5 -61.5q0 -37 -26.5 -62.5t-63.5 -25.5q-35 0 -61.5 25.5t-26.5 62.5z" />
<glyph unicode="&#x152;" horiz-adv-x="899" d="M68 250v924q0 131 55 190t182 59h549v-151h-238v-443h228v-151h-228v-526h246v-152h-557q-127 0 -182 59.5t-55 190.5zM231 258q0 -63 24 -85.5t87 -22.5h111v1124h-111q-63 0 -87 -22.5t-24 -86.5v-907z" />
<glyph unicode="&#x153;" horiz-adv-x="925" d="M61 211v526q0 223 236 224q113 0 166 -68h8q57 68 168 68q225 0 225 -213v-347h-315v-159q0 -111 131 -111q111 0 160 66h8v-170q-92 -37 -193 -37q-119 0 -184 65h-8q-53 -66 -166 -65q-127 0 -181.5 51t-54.5 170zM209 219q0 -88 94 -88t94 88v510q0 88 -94 88t-94 -88 v-510zM549 541h170v188q0 94 -84 94q-86 0 -86 -94v-188z" />
<glyph unicode="&#x178;" horiz-adv-x="735" d="M61 803v620h164v-624q0 -109 113 -109t113 109v624h163v-620q0 -221 -194 -250v-553h-164v553q-195 29 -195 250zM141 1593q0 35 26.5 61.5t61.5 26.5q37 0 63.5 -26.5t26.5 -61.5q0 -37 -26.5 -62.5t-63.5 -25.5q-35 0 -61.5 25.5t-26.5 62.5zM409 1593q0 35 26.5 61.5 t61.5 26.5q37 0 63.5 -26.5t26.5 -61.5q0 -37 -26.5 -62.5t-63.5 -25.5q-35 0 -61.5 25.5t-26.5 62.5z" />
<glyph unicode="&#x2c6;" horiz-adv-x="600" d="M102 1231l199 205l195 -205l-66 -74l-131 135l-127 -135z" />
<glyph unicode="&#x2dc;" horiz-adv-x="600" d="M127 1161q0 55 25 96q27 51 79 52q31 0 78 -27t60 -27q31 0 30 41h74q0 -145 -98 -145q-33 0 -68 26.5t-57 26.5q-35 0 -35 -43h-88z" />
<glyph unicode="&#x2000;" horiz-adv-x="892" />
<glyph unicode="&#x2001;" horiz-adv-x="1784" />
<glyph unicode="&#x2002;" horiz-adv-x="892" />
<glyph unicode="&#x2003;" horiz-adv-x="1784" />
<glyph unicode="&#x2004;" horiz-adv-x="594" />
<glyph unicode="&#x2005;" horiz-adv-x="446" />
<glyph unicode="&#x2006;" horiz-adv-x="297" />
<glyph unicode="&#x2007;" horiz-adv-x="297" />
<glyph unicode="&#x2008;" horiz-adv-x="223" />
<glyph unicode="&#x2009;" horiz-adv-x="356" />
<glyph unicode="&#x200a;" horiz-adv-x="99" />
<glyph unicode="&#x2010;" horiz-adv-x="530" d="M47 502v151h438v-151h-438z" />
<glyph unicode="&#x2011;" horiz-adv-x="530" d="M47 502v151h438v-151h-438z" />
<glyph unicode="&#x2012;" horiz-adv-x="530" d="M47 502v151h438v-151h-438z" />
<glyph unicode="&#x2013;" horiz-adv-x="573" d="M47 502v151h479v-151h-479z" />
<glyph unicode="&#x2014;" horiz-adv-x="897" d="M47 502v151h805v-151h-805z" />
<glyph unicode="&#x2018;" horiz-adv-x="272" d="M0 1047l141 376h131l-94 -376h-178z" />
<glyph unicode="&#x2019;" horiz-adv-x="272" d="M0 1047l92 376h182l-143 -376h-131z" />
<glyph unicode="&#x201a;" horiz-adv-x="272" d="M-23 -162l93 375h182l-143 -375h-132z" />
<glyph unicode="&#x201c;" horiz-adv-x="550" d="M0 1047l141 376h131l-94 -376h-178zM276 1047l144 376h133l-94 -376h-183z" />
<glyph unicode="&#x201d;" horiz-adv-x="550" d="M0 1047l92 376h182l-143 -376h-131zM279 1047l94 376h180l-143 -376h-131z" />
<glyph unicode="&#x201e;" horiz-adv-x="550" d="M-23 -162l93 375h182l-143 -375h-132zM256 -162l94 375h180l-143 -375h-131z" />
<glyph unicode="&#x2022;" horiz-adv-x="491" d="M61 559v139q0 164 184.5 164t184.5 -164v-139q0 -164 -184.5 -164t-184.5 164z" />
<glyph unicode="&#x2026;" horiz-adv-x="901" d="M23 98q0 47 33.5 80t78.5 33t78 -34t33 -79t-33 -76.5t-78 -31.5t-78.5 31.5t-33.5 76.5zM338 98q0 47 34 80t79 33t77.5 -34t32.5 -79t-32.5 -76.5t-77.5 -31.5t-79 31.5t-34 76.5zM653 98q0 45 33 79t78 34q47 0 80 -33t33 -80q0 -45 -34 -76.5t-79 -31.5t-78 31.5 t-33 76.5z" />
<glyph unicode="&#x202f;" horiz-adv-x="356" />
<glyph unicode="&#x2039;" horiz-adv-x="462" d="M20 473l242 475h176l-237 -475l237 -473h-176z" />
<glyph unicode="&#x203a;" horiz-adv-x="462" d="M23 0l237 473l-237 475h178l241 -475l-241 -473h-178z" />
<glyph unicode="&#x205f;" horiz-adv-x="446" />
<glyph unicode="&#x2122;" horiz-adv-x="800" d="M16 1348v75h267v-75h-97v-637h-73v637h-97zM332 711v712h80l131 -530l131 530h78v-712h-74v426l-103 -426h-67l-100 428v-428h-76z" />
<glyph unicode="&#x25fc;" horiz-adv-x="952" d="M0 0v952h952v-952h-952z" />
<glyph unicode="&#xfb01;" horiz-adv-x="663" d="M27 801v147h51v213q0 274 278 275q135 0 209 -31v-180h-8q-72 63 -176 63q-150 0 -150 -143v-197h355v-948h-156v801h-199v-801h-153v801h-51z" />
<glyph unicode="&#xfb02;" horiz-adv-x="663" d="M27 801v147h51v203q0 272 284 272h224v-1423h-156v1276h-55q-143 0 -144 -131v-197h99v-147h-99v-801h-153v801h-51z" />
</font>
</defs>
</svg>
